<?xml version="1.0" standalone="no"?>
<!DOCTYPE svg PUBLIC "-//W3C//DTD SVG 20010904//EN"
 "http://www.w3.org/TR/2001/REC-SVG-20010904/DTD/svg10.dtd">
<svg version="1.0" xmlns="http://www.w3.org/2000/svg"
 width="1673.000000pt" height="1673.000000pt" viewBox="0 0 1673.000000 1673.000000"
 preserveAspectRatio="xMidYMid meet">
<metadata>
Created by potrace 1.11, written by Peter Selinger 2001-2013
</metadata>
<g transform="translate(0.000000,1673.000000) scale(0.100000,-0.100000)"
fill="#000000" stroke="none">
<path d="M8239 14185 c-2 -2 -30 -5 -62 -7 -31 -1 -57 -7 -57 -12 0 -5 -3 -7
-6 -4 -12 12 -193 -63 -202 -84 -2 -5 -10 -8 -18 -8 -8 0 -14 -4 -14 -10 0 -5
-5 -10 -12 -10 -14 0 -138 -124 -138 -139 0 -6 -4 -11 -10 -11 -5 0 -10 -6
-10 -14 0 -8 -7 -16 -15 -20 -8 -3 -15 -15 -15 -26 0 -11 -3 -20 -8 -20 -10 0
-25 -38 -57 -140 -22 -70 -26 -101 -24 -185 1 -55 7 -119 14 -142 7 -23 10
-44 7 -47 -3 -4 0 -6 7 -6 7 0 9 -4 6 -10 -3 -5 -1 -10 4 -10 6 0 10 -3 9 -7
-4 -15 14 -73 22 -73 4 0 10 -10 14 -23 3 -13 17 -36 31 -53 14 -16 25 -32 25
-36 0 -11 104 -115 135 -134 17 -10 34 -24 38 -31 4 -7 17 -13 27 -13 11 0 20
-5 20 -11 0 -5 4 -8 9 -5 5 3 14 -1 21 -9 7 -8 30 -18 51 -21 22 -4 39 -11 39
-17 0 -6 3 -8 6 -4 4 3 21 0 39 -7 35 -15 281 -20 300 -7 6 4 39 16 75 26 36
10 72 24 80 30 8 7 32 20 53 30 20 9 37 21 37 26 0 5 7 9 15 9 8 0 20 9 27 20
7 11 17 20 21 20 12 0 76 69 103 113 14 20 29 37 35 37 5 0 8 4 5 9 -3 5 5 25
19 45 14 20 24 40 23 44 -2 12 26 102 32 102 9 0 14 58 14 170 0 86 -5 120
-28 191 -15 48 -33 95 -41 105 -8 11 -15 26 -15 34 0 9 -9 22 -20 30 -11 8
-20 19 -20 25 0 14 -115 135 -128 135 -5 0 -12 6 -15 13 -3 7 -33 28 -68 47
-35 18 -65 37 -67 42 -2 4 -17 8 -33 8 -16 0 -29 4 -29 8 0 4 -12 9 -26 10
-15 1 -32 6 -38 11 -6 5 -47 9 -90 10 -44 1 -83 4 -86 6 -4 3 -9 3 -11 0z"/>
<path d="M6218 11338 l-287 -493 1173 -3 c646 -1 1706 -1 2355 0 l1180 3 -287
493 -287 492 -1780 0 -1780 0 -287 -492z"/>
<path d="M5282 9733 c-206 -351 -494 -847 -499 -859 -4 -12 62 -14 450 -14
l455 0 12 68 c44 237 195 609 337 829 29 46 53 85 53 88 0 3 -166 5 -370 5
l-369 0 -69 -117z"/>
<path d="M10490 9845 c0 -2 25 -42 55 -88 50 -77 150 -268 190 -362 56 -133
155 -462 155 -516 0 -18 12 -19 450 -19 248 0 450 3 450 8 0 4 -128 225 -284
492 l-283 485 -367 3 c-201 1 -366 0 -366 -3z"/>
<path d="M8249 9175 c-4 -3 -26 -7 -50 -9 -51 -5 -109 -15 -119 -21 -4 -2 -22
-7 -41 -10 -18 -3 -36 -9 -39 -13 -3 -4 -12 -8 -20 -10 -19 -4 -141 -63 -158
-77 -7 -5 -18 -15 -25 -21 -7 -6 -23 -14 -35 -18 -12 -4 -21 -10 -19 -14 2 -9
-50 -61 -56 -55 -3 2 -8 -5 -12 -16 -3 -12 -11 -19 -16 -16 -5 4 -9 -1 -9 -10
0 -9 -4 -13 -10 -10 -5 3 -10 1 -10 -5 0 -11 -32 -60 -62 -94 -10 -10 -15 -22
-13 -26 2 -4 -4 -16 -14 -26 -9 -11 -15 -26 -13 -33 3 -8 0 -11 -7 -7 -7 5 -9
1 -5 -8 3 -9 1 -16 -5 -16 -6 0 -10 -3 -9 -7 0 -5 -1 -15 -4 -23 -16 -47 -30
-93 -33 -113 -3 -12 -8 -42 -13 -67 -4 -25 -6 -88 -4 -140 5 -135 6 -150 12
-150 3 0 6 -10 7 -22 1 -12 6 -33 12 -47 5 -14 12 -35 17 -46 9 -26 15 -47 16
-62 1 -7 5 -10 9 -7 4 2 13 -14 20 -36 7 -22 16 -40 21 -40 5 0 13 -11 18 -25
5 -14 14 -25 20 -25 5 0 10 -6 10 -14 0 -8 36 -50 80 -95 44 -44 80 -78 80
-75 0 7 74 -49 78 -59 2 -4 8 -5 13 -1 5 3 9 0 9 -6 0 -6 5 -8 10 -5 6 3 10 1
10 -5 0 -6 5 -8 10 -5 6 3 10 1 10 -5 0 -6 4 -9 9 -5 5 3 17 -3 27 -12 10 -10
20 -17 23 -17 3 1 11 0 16 -2 21 -8 131 -35 160 -41 48 -8 248 -10 265 -2 9 4
31 10 50 12 19 3 35 6 35 7 0 2 37 11 53 12 6 1 12 4 12 8 0 4 6 7 14 7 17 0
146 63 164 80 7 7 20 13 28 13 8 0 14 8 14 17 0 9 3 13 7 10 3 -4 16 5 29 18
13 14 26 25 30 25 11 0 109 110 109 123 0 4 5 11 11 15 6 4 19 22 28 40 9 17
22 32 28 32 6 0 8 3 5 6 -4 4 0 19 7 33 12 22 21 43 31 71 1 3 4 12 8 20 21
54 32 102 42 181 12 94 12 99 3 99 -5 0 -6 6 -2 12 10 16 13 48 4 48 -3 0 -6
18 -5 40 1 22 -3 40 -8 40 -4 0 -5 4 -2 10 6 10 -11 83 -27 114 -8 16 -13 32
-22 72 -1 7 -7 18 -13 26 -6 7 -13 20 -15 28 -2 8 -11 23 -20 34 -10 11 -18
26 -18 33 0 7 -4 13 -10 13 -5 0 -10 4 -10 10 0 21 -123 150 -180 190 -19 13
-37 27 -40 30 -9 9 -64 41 -82 47 -10 3 -18 9 -18 12 0 4 -7 8 -15 9 -8 1 -22
3 -30 4 -8 1 -15 5 -15 10 0 4 -8 8 -18 8 -10 0 -22 4 -27 9 -6 5 -26 11 -46
14 -20 2 -42 8 -48 11 -6 4 -38 9 -72 11 -34 2 -63 6 -66 9 -3 3 -16 1 -28 -4
-15 -6 -25 -5 -27 1 -2 6 -6 8 -9 4z"/>
<path d="M3940 7433 c-140 -240 -270 -463 -288 -495 l-33 -58 1235 0 1236 0
-55 85 c-142 220 -285 571 -331 814 l-18 91 -746 0 -745 0 -255 -437z"/>
<path d="M10896 7858 c-2 -7 -16 -64 -30 -126 -67 -281 -190 -574 -328 -779
l-49 -73 1231 0 1231 0 -33 58 c-18 32 -148 255 -288 495 l-255 437 -738 0
c-582 0 -738 -3 -741 -12z"/>
<path d="M5922 5877 c2 -7 129 -230 283 -495 l280 -481 1781 -1 1782 0 277
478 c153 262 287 485 297 495 19 16 -91 17 -2342 17 -1949 0 -2361 -2 -2358
-13z"/>
<path d="M8186 3909 c-32 -4 -62 -13 -67 -20 -7 -11 -9 -11 -9 -1 0 9 -5 10
-19 3 -10 -6 -21 -7 -25 -4 -3 3 -6 2 -6 -3 0 -5 -20 -16 -45 -23 -25 -7 -45
-17 -45 -21 0 -4 -13 -13 -30 -20 -26 -11 -41 -21 -87 -60 -7 -5 -18 -10 -24
-10 -7 0 -10 -2 -7 -5 2 -3 -17 -27 -44 -55 -26 -27 -48 -56 -48 -64 0 -8 -9
-18 -21 -21 -11 -4 -18 -9 -15 -13 3 -3 -1 -16 -9 -29 -9 -13 -12 -23 -9 -23
4 0 1 -8 -8 -17 -14 -18 -53 -134 -63 -188 -13 -76 -4 -229 15 -266 6 -10 8
-19 5 -19 -3 0 1 -13 10 -30 8 -16 15 -37 15 -47 0 -10 9 -29 20 -43 11 -14
20 -32 20 -40 0 -8 12 -26 25 -39 14 -13 25 -27 25 -32 0 -13 100 -112 136
-135 16 -10 33 -24 37 -31 4 -7 16 -13 26 -13 10 0 24 -7 31 -15 7 -8 16 -12
21 -9 5 3 9 1 9 -5 0 -8 29 -18 79 -27 8 -2 17 -6 20 -11 9 -12 32 -14 165
-19 71 -2 136 1 160 7 23 7 47 12 54 12 6 0 12 4 12 9 0 4 9 8 20 8 12 0 35 8
53 17 18 9 35 16 40 15 4 -1 7 3 7 8 0 6 7 10 15 10 8 0 23 9 32 20 10 11 22
20 27 20 10 0 20 8 88 74 25 25 44 46 42 46 -3 0 0 6 5 13 48 58 61 77 61 91
0 9 4 16 9 16 9 0 29 42 35 77 3 12 10 31 16 42 6 12 8 21 4 21 -3 0 -2 6 3
13 6 6 10 24 9 40 -1 15 2 27 5 27 4 0 7 42 7 94 0 81 -10 137 -36 206 -3 8
-6 18 -6 22 -1 3 -4 9 -8 13 -4 4 -4 13 -1 21 3 8 1 14 -4 14 -5 0 -15 16 -22
35 -7 19 -18 40 -24 47 -7 7 -23 29 -37 48 -26 39 -142 151 -149 145 -2 -3
-10 4 -18 15 -8 11 -23 20 -34 20 -10 0 -19 3 -19 8 0 9 -67 41 -98 47 -12 2
-27 7 -32 10 -34 21 -197 34 -294 24z"/>
</g>
</svg>
